<?xml version="1.0" encoding="UTF-8"?>
<svg xmlns="http://www.w3.org/2000/svg"
     viewBox="0 0 840 470" width="840" height="470">
  <defs>
    <style>text{font-family:'DM Sans',ui-sans-serif,system-ui,sans-serif;font-weight:500}</style>
    <marker id="arr" markerWidth="8" markerHeight="6" refX="7" refY="3" orient="auto">
      <polygon points="0 0,8 3,0 6" fill="#6b7280"/>
    </marker>
  </defs>
  <rect width="840" height="470" fill="#ffffff"/>
  <rect x="20" y="40" width="140" height="60" rx="8" fill="#dbeafe" stroke="#1d4ed8" stroke-width="2"/>
  <text x="90" y="70" text-anchor="middle" dominant-baseline="middle" fill="#1e3a8a" font-size="13">Button GPIO</text>
  <rect x="20" y="120" width="140" height="60" rx="8" fill="#dbeafe" stroke="#1d4ed8" stroke-width="2"/>
  <text x="90" y="150" text-anchor="middle" dominant-baseline="middle" fill="#1e3a8a" font-size="13">UART RX</text>
  <rect x="20" y="200" width="140" height="60" rx="8" fill="#dbeafe" stroke="#1d4ed8" stroke-width="2"/>
  <text x="90" y="230" text-anchor="middle" dominant-baseline="middle" fill="#1e3a8a" font-size="13">Timer TIM2</text>
  <rect x="20" y="280" width="140" height="60" rx="8" fill="#dbeafe" stroke="#1d4ed8" stroke-width="2"/>
  <text x="90" y="310" text-anchor="middle" dominant-baseline="middle" fill="#1e3a8a" font-size="13">ADC EOC</text>
  <rect x="20" y="360" width="140" height="60" rx="8" fill="#dbeafe" stroke="#1d4ed8" stroke-width="2"/>
  <text x="90" y="390" text-anchor="middle" dominant-baseline="middle" fill="#1e3a8a" font-size="13">SPI TC</text>
  <line x1="160" y1="70" x2="220" y2="70" stroke="#6b7280" stroke-width="2" marker-end="url(#arr)"/>
  <text x="190" y="61" text-anchor="middle" dominant-baseline="middle" fill="#9ca3af" font-size="11">IRQ</text>
  <line x1="160" y1="150" x2="220" y2="150" stroke="#6b7280" stroke-width="2" marker-end="url(#arr)"/>
  <text x="190" y="141" text-anchor="middle" dominant-baseline="middle" fill="#9ca3af" font-size="11">IRQ</text>
  <line x1="160" y1="230" x2="220" y2="230" stroke="#6b7280" stroke-width="2" marker-end="url(#arr)"/>
  <text x="190" y="221" text-anchor="middle" dominant-baseline="middle" fill="#9ca3af" font-size="11">IRQ</text>
  <line x1="160" y1="310" x2="220" y2="310" stroke="#6b7280" stroke-width="2" marker-end="url(#arr)"/>
  <text x="190" y="301" text-anchor="middle" dominant-baseline="middle" fill="#9ca3af" font-size="11">IRQ</text>
  <line x1="160" y1="390" x2="220" y2="390" stroke="#6b7280" stroke-width="2" marker-end="url(#arr)"/>
  <text x="190" y="381" text-anchor="middle" dominant-baseline="middle" fill="#9ca3af" font-size="11">IRQ</text>
  <rect x="220" y="40" width="150" height="60" rx="8" fill="#fee2e2" stroke="#991b1b" stroke-width="2"/>
  <text x="295" y="70" text-anchor="middle" dominant-baseline="middle" fill="#7f1d1d" font-size="13">EXTI ISR</text>
  <rect x="220" y="120" width="150" height="60" rx="8" fill="#fee2e2" stroke="#991b1b" stroke-width="2"/>
  <text x="295" y="150" text-anchor="middle" dominant-baseline="middle" fill="#7f1d1d" font-size="13">USART ISR</text>
  <rect x="220" y="200" width="150" height="60" rx="8" fill="#fee2e2" stroke="#991b1b" stroke-width="2"/>
  <text x="295" y="230" text-anchor="middle" dominant-baseline="middle" fill="#7f1d1d" font-size="13">TIM ISR</text>
  <rect x="220" y="280" width="150" height="60" rx="8" fill="#fee2e2" stroke="#991b1b" stroke-width="2"/>
  <text x="295" y="310" text-anchor="middle" dominant-baseline="middle" fill="#7f1d1d" font-size="13">ADC ISR</text>
  <rect x="220" y="360" width="150" height="60" rx="8" fill="#fee2e2" stroke="#991b1b" stroke-width="2"/>
  <text x="295" y="390" text-anchor="middle" dominant-baseline="middle" fill="#7f1d1d" font-size="13">SPI ISR</text>
  <line x1="370" y1="70" x2="440" y2="230" stroke="#6b7280" stroke-width="2" marker-end="url(#arr)"/>
  <text x="405" y="141" text-anchor="middle" dominant-baseline="middle" fill="#9ca3af" font-size="11">post()</text>
  <line x1="370" y1="150" x2="440" y2="230" stroke="#6b7280" stroke-width="2" marker-end="url(#arr)"/>
  <text x="405" y="181" text-anchor="middle" dominant-baseline="middle" fill="#9ca3af" font-size="11">post()</text>
  <line x1="370" y1="230" x2="440" y2="230" stroke="#6b7280" stroke-width="2" marker-end="url(#arr)"/>
  <text x="405" y="221" text-anchor="middle" dominant-baseline="middle" fill="#9ca3af" font-size="11">post()</text>
  <line x1="370" y1="310" x2="440" y2="230" stroke="#6b7280" stroke-width="2" marker-end="url(#arr)"/>
  <text x="405" y="261" text-anchor="middle" dominant-baseline="middle" fill="#9ca3af" font-size="11">post()</text>
  <line x1="370" y1="390" x2="440" y2="230" stroke="#6b7280" stroke-width="2" marker-end="url(#arr)"/>
  <text x="405" y="301" text-anchor="middle" dominant-baseline="middle" fill="#9ca3af" font-size="11">post()</text>
  <rect x="440" y="110" width="170" height="240" rx="8" fill="#cffafe" stroke="#0e7490" stroke-width="2"/>
  <text x="525" y="190" text-anchor="middle" dominant-baseline="middle" fill="#164e63" font-size="13">EVENT</text>
  <text x="525" y="210" text-anchor="middle" dominant-baseline="middle" fill="#164e63" font-size="13">QUEUE</text>
  <text x="525" y="250" text-anchor="middle" dominant-baseline="middle" fill="#164e63" font-size="13">FIFO</text>
  <text x="525" y="270" text-anchor="middle" dominant-baseline="middle" fill="#164e63" font-size="13">event_loop()</text>
  <line x1="610" y1="230" x2="680" y2="70" stroke="#6b7280" stroke-width="2" marker-end="url(#arr)"/>
  <line x1="610" y1="230" x2="680" y2="150" stroke="#6b7280" stroke-width="2" marker-end="url(#arr)"/>
  <line x1="610" y1="230" x2="680" y2="230" stroke="#6b7280" stroke-width="2" marker-end="url(#arr)"/>
  <line x1="610" y1="230" x2="680" y2="310" stroke="#6b7280" stroke-width="2" marker-end="url(#arr)"/>
  <rect x="680" y="40" width="160" height="60" rx="8" fill="#dcfce7" stroke="#166534" stroke-width="2"/>
  <text x="760" y="70" text-anchor="middle" dominant-baseline="middle" fill="#14532d" font-size="13">btn_handler()</text>
  <rect x="680" y="120" width="160" height="60" rx="8" fill="#dcfce7" stroke="#166534" stroke-width="2"/>
  <text x="760" y="150" text-anchor="middle" dominant-baseline="middle" fill="#14532d" font-size="13">uart_handler()</text>
  <rect x="680" y="200" width="160" height="60" rx="8" fill="#dcfce7" stroke="#166534" stroke-width="2"/>
  <text x="760" y="230" text-anchor="middle" dominant-baseline="middle" fill="#14532d" font-size="13">adc_handler()</text>
  <rect x="680" y="280" width="160" height="60" rx="8" fill="#dcfce7" stroke="#166534" stroke-width="2"/>
  <text x="760" y="310" text-anchor="middle" dominant-baseline="middle" fill="#14532d" font-size="13">tick_handler()</text>
</svg>