<?xml version="1.0" encoding="UTF-8"?>
<svg xmlns="http://www.w3.org/2000/svg"
     viewBox="0 0 760 570" width="760" height="570">
  <defs>
    <style>text{font-family:'DM Sans',ui-sans-serif,system-ui,sans-serif;font-weight:500}</style>
    <marker id="arr" markerWidth="8" markerHeight="6" refX="7" refY="3" orient="auto">
      <polygon points="0 0,8 3,0 6" fill="#6b7280"/>
    </marker>
  </defs>
  <rect width="760" height="570" fill="#ffffff"/>
  <rect x="80" y="20" width="600" height="50" rx="8" fill="#cffafe" stroke="#0e7490" stroke-width="2"/>
  <text x="380" y="45" text-anchor="middle" dominant-baseline="middle" fill="#164e63" font-size="15">APB / AHB Bus</text>
  <line x1="185" y1="70" x2="185" y2="140" stroke="#6b7280" stroke-width="2" marker-end="url(#arr)"/>
  <rect x="80" y="140" width="160" height="70" rx="8" fill="#dbeafe" stroke="#1d4ed8" stroke-width="2"/>
  <text x="160" y="165" text-anchor="middle" dominant-baseline="middle" fill="#1e3a8a" font-size="13">Mode</text>
  <text x="160" y="185" text-anchor="middle" dominant-baseline="middle" fill="#1e3a8a" font-size="13">Register</text>
  <line x1="240" y1="175" x2="290" y2="165" stroke="#6b7280" stroke-width="2" marker-end="url(#arr)"/>
  <line x1="240" y1="175" x2="290" y2="255" stroke="#6b7280" stroke-width="2" marker-end="url(#arr)"/>
  <rect x="290" y="130" width="200" height="60" rx="8" fill="#d1fae5" stroke="#065f46" stroke-width="2"/>
  <text x="390" y="160" text-anchor="middle" dominant-baseline="middle" fill="#064e3b" font-size="12">Input Mode → Schmitt Trigger</text>
  <rect x="290" y="220" width="200" height="70" rx="8" fill="#d1fae5" stroke="#065f46" stroke-width="2"/>
  <text x="390" y="246" text-anchor="middle" dominant-baseline="middle" fill="#064e3b" font-size="12">Output Mode</text>
  <text x="390" y="265" text-anchor="middle" dominant-baseline="middle" fill="#064e3b" font-size="12">Push-Pull / Open-Drain</text>
  <line x1="490" y1="255" x2="490" y2="370" stroke="#6b7280" stroke-width="2" marker-end="url(#arr)"/>
  <text x="490" y="304" text-anchor="middle" dominant-baseline="middle" fill="#9ca3af" font-size="11">output drive</text>
  <rect x="200" y="370" width="360" height="70" rx="8" fill="#ede9fe" stroke="#5b21b6" stroke-width="2"/>
  <text x="380" y="405" text-anchor="middle" dominant-baseline="middle" fill="#4c1d95" font-size="17">GPIO  PAD</text>
  <line x1="370" y1="440" x2="280" y2="490" stroke="#6b7280" stroke-width="2" marker-end="url(#arr)"/>
  <line x1="450" y1="440" x2="570" y2="490" stroke="#6b7280" stroke-width="2" marker-end="url(#arr)"/>
  <rect x="80" y="490" width="200" height="60" rx="8" fill="#f9fafb" stroke="#374151" stroke-width="2"/>
  <text x="180" y="511" text-anchor="middle" dominant-baseline="middle" fill="#111827" font-size="12">Pull-Up / Pull-Down</text>
  <text x="180" y="530" text-anchor="middle" dominant-baseline="middle" fill="#111827" font-size="12">(switchable)</text>
  <rect x="490" y="490" width="190" height="60" rx="8" fill="#fee2e2" stroke="#991b1b" stroke-width="2"/>
  <text x="585" y="520" text-anchor="middle" dominant-baseline="middle" fill="#7f1d1d" font-size="13">EXTI Line  →  NVIC</text>
</svg>