<svg xmlns="http://www.w3.org/2000/svg" viewBox="0 0 760 260" fill="none" aria-label="Industrial IoT Gateway Architecture"><style>@import url('https://fonts.googleapis.com/css2?family=DM+Sans:wght@400;600&amp;display=swap');
.bg  { fill: var(--surface, #111114); }
.box { fill: var(--surface-2, #18181c); stroke: var(--border-2, rgba(255,255,255,.38)); stroke-width: 1.4; }
.box-hi { fill: var(--surface-3, #202024); stroke: var(--border-3, rgba(255,255,255,.55)); stroke-width: 1.4; }
.line { stroke: var(--border-3, rgba(255,255,255,.55)); stroke-width: 1.4; fill: none; stroke-linecap: round; stroke-linejoin: round; }
.arr { stroke: var(--border-3, rgba(255,255,255,.55)); stroke-width: 1.4; fill: none; stroke-linecap: round; stroke-linejoin: round; marker-end: url(#arrowhead); }
.arr-bi { stroke: var(--border-3, rgba(255,255,255,.55)); stroke-width: 1.4; fill: none; stroke-linecap: round; stroke-linejoin: round; marker-end: url(#arrowhead); marker-start: url(#arrowhead-start); }
.t1 { font-family:"DM Sans",system-ui,sans-serif; font-size:11px; font-weight:600; fill:var(--text,#fff); text-anchor:middle; dominant-baseline:middle; }
.t2 { font-family:"DM Sans",system-ui,sans-serif; font-size:10px; fill:var(--text-2,rgba(255,255,255,.88)); text-anchor:middle; dominant-baseline:middle; }
.t3 { font-family:"DM Sans",system-ui,sans-serif; font-size:9px; fill:var(--text-3,rgba(255,255,255,.70)); text-anchor:middle; dominant-baseline:middle; }
.tlabel { font-family:"DM Sans",system-ui,sans-serif; font-size:9px; fill:var(--text-4,rgba(255,255,255,.50)); dominant-baseline:middle; }
.badge { fill:var(--surface-3,#202024); stroke:var(--border-2,rgba(255,255,255,.38)); stroke-width:1; }
.div { stroke: var(--border,rgba(255,255,255,.22)); stroke-width:1; }</style><defs/><text class="t3" x="380" y="14">INDUSTRIAL IoT GATEWAY ARCHITECTURE</text><rect class="box" x="14" y="30" width="130" height="200" rx="6"/><text class="t1" x="79" y="48">FIELD DEVICES</text><line class="div" x1="15" y1="56" x2="143" y2="56"/><rect class="box-hi" x="22" y="62" width="114" height="24" rx="4"/><text class="t2" x="79" y="74">Modbus RTU</text><rect class="box-hi" x="22" y="94" width="114" height="24" rx="4"/><text class="t2" x="79" y="106">CAN Sensors</text><rect class="box-hi" x="22" y="126" width="114" height="24" rx="4"/><text class="t2" x="79" y="138">4–20 mA Inputs</text><rect class="box-hi" x="22" y="158" width="114" height="24" rx="4"/><text class="t2" x="79" y="170">Digital I/O</text><rect class="box-hi" x="22" y="190" width="114" height="24" rx="4"/><text class="t2" x="79" y="202">PT100 / TC</text><rect class="box-hi" x="170" y="30" width="420" height="200" rx="6"/><text class="t1" x="380" y="48">GATEWAY  (STM32MP1 · Cortex-A7 + M4)</text><line class="div" x1="171" y1="56" x2="589" y2="56"/><rect class="box" x="178" y="64" width="120" height="56" rx="4"/><text class="t1" x="238" y="80">Protocol</text><text class="t1" x="238" y="94">Adapters</text><text class="t3" x="238" y="104">Modbus → JSON</text><text class="t3" x="238" y="116">CAN → MQTT</text><rect class="box" x="310" y="64" width="120" height="56" rx="4"/><text class="t1" x="370" y="80">Data</text><text class="t1" x="370" y="94">Aggregator</text><text class="t3" x="370" y="104">Timestamp</text><text class="t3" x="370" y="116">Normalize</text><rect class="box" x="442" y="64" width="120" height="56" rx="4"/><text class="t1" x="502" y="80">Edge</text><text class="t1" x="502" y="94">Analytics</text><text class="t3" x="502" y="104">Threshold</text><text class="t3" x="502" y="116">Alerts</text><rect class="box" x="178" y="160" width="120" height="56" rx="4"/><text class="t1" x="238" y="176">TLS/mTLS</text><text class="t1" x="238" y="190">Client</text><text class="t3" x="238" y="200">AWS IoT</text><text class="t3" x="238" y="212">Azure Hub</text><rect class="box" x="310" y="160" width="120" height="56" rx="4"/><text class="t1" x="370" y="176">Local</text><text class="t1" x="370" y="190">Storage</text><text class="t3" x="370" y="200">SD card</text><text class="t3" x="370" y="212">Store+Fwd</text><rect class="box" x="442" y="160" width="120" height="56" rx="4"/><text class="t1" x="502" y="176">OTA</text><text class="t1" x="502" y="190">Update</text><text class="t3" x="502" y="200">Signed</text><text class="t3" x="502" y="212">images</text><line class="arr" x1="298" y1="92" x2="308" y2="92"/><line class="arr" x1="430" y1="92" x2="440" y2="92"/><line class="arr" x1="298" y1="188" x2="308" y2="188"/><line class="arr" x1="430" y1="188" x2="440" y2="188"/><rect class="box" x="626" y="30" width="120" height="200" rx="6"/><text class="t1" x="686" y="48">CLOUD</text><line class="div" x1="627" y1="56" x2="745" y2="56"/><rect class="box" x="634" y="62" width="106" height="24" rx="4"/><text class="t2" x="687" y="74">MQTT Broker</text><rect class="box" x="634" y="94" width="106" height="24" rx="4"/><text class="t2" x="687" y="106">Time Series DB</text><rect class="box" x="634" y="126" width="106" height="24" rx="4"/><text class="t2" x="687" y="138">Dashboard</text><rect class="box" x="634" y="158" width="106" height="24" rx="4"/><text class="t2" x="687" y="170">Alerting</text><rect class="box" x="634" y="190" width="106" height="24" rx="4"/><text class="t2" x="687" y="202">Device Mgmt</text><line class="arr" x1="144" y1="130" x2="168" y2="130"/><line class="arr" x1="590" y1="130" x2="624" y2="130"/><rect class="box" x="14" y="240" width="732" height="18" rx="4"/><text class="t3" x="380" y="249">&lt; 100 ms field-to-cloud latency  ·  Store-and-forward on connectivity loss  ·  mTLS device auth</text></svg>