<svg xmlns="http://www.w3.org/2000/svg" viewBox="0 0 760 250" fill="none" aria-label="Yocto / Linux BSP Layers for i.MX8"><style>@import url('https://fonts.googleapis.com/css2?family=DM+Sans:wght@400;600&amp;display=swap');
.bg  { fill: var(--surface, #111114); }
.box { fill: var(--surface-2, #18181c); stroke: var(--border-2, rgba(255,255,255,.38)); stroke-width: 1.4; }
.box-hi { fill: var(--surface-3, #202024); stroke: var(--border-3, rgba(255,255,255,.55)); stroke-width: 1.4; }
.line { stroke: var(--border-3, rgba(255,255,255,.55)); stroke-width: 1.4; fill: none; stroke-linecap: round; stroke-linejoin: round; }
.arr { stroke: var(--border-3, rgba(255,255,255,.55)); stroke-width: 1.4; fill: none; stroke-linecap: round; stroke-linejoin: round; marker-end: url(#arrowhead); }
.arr-bi { stroke: var(--border-3, rgba(255,255,255,.55)); stroke-width: 1.4; fill: none; stroke-linecap: round; stroke-linejoin: round; marker-end: url(#arrowhead); marker-start: url(#arrowhead-start); }
.t1 { font-family:"DM Sans",system-ui,sans-serif; font-size:11px; font-weight:600; fill:var(--text,#fff); text-anchor:middle; dominant-baseline:middle; }
.t2 { font-family:"DM Sans",system-ui,sans-serif; font-size:10px; fill:var(--text-2,rgba(255,255,255,.88)); text-anchor:middle; dominant-baseline:middle; }
.t3 { font-family:"DM Sans",system-ui,sans-serif; font-size:9px; fill:var(--text-3,rgba(255,255,255,.70)); text-anchor:middle; dominant-baseline:middle; }
.tlabel { font-family:"DM Sans",system-ui,sans-serif; font-size:9px; fill:var(--text-4,rgba(255,255,255,.50)); dominant-baseline:middle; }
.badge { fill:var(--surface-3,#202024); stroke:var(--border-2,rgba(255,255,255,.38)); stroke-width:1; }
.div { stroke: var(--border,rgba(255,255,255,.22)); stroke-width:1; }</style><defs/><text class="t3" x="380" y="14">LINUX BSP LAYER STACK  (i.MX8  ·  Yocto Kirkstone)</text><rect class="box-hi" x="14" y="30" width="340" height="28" rx="4"/><text class="t1" x="184" y="40">User Applications</text><text class="t3" x="184" y="51">Qt · Python · OpenCV</text><line class="arr" x1="184" y1="59" x2="184" y2="61"/><rect class="box" x="14" y="60" width="340" height="28" rx="4"/><text class="t1" x="184" y="70">System Services</text><text class="t3" x="184" y="81">systemd · D-Bus · NetworkManager</text><line class="arr" x1="184" y1="89" x2="184" y2="91"/><rect class="box" x="14" y="90" width="340" height="28" rx="4"/><text class="t1" x="184" y="100">C Library</text><text class="t3" x="184" y="111">glibc / musl</text><line class="arr" x1="184" y1="119" x2="184" y2="121"/><rect class="box-hi" x="14" y="120" width="340" height="28" rx="4"/><text class="t1" x="184" y="130">Linux Kernel</text><text class="t3" x="184" y="141">6.1 LTS  +  custom device drivers</text><line class="arr" x1="184" y1="149" x2="184" y2="151"/><rect class="box" x="14" y="150" width="340" height="28" rx="4"/><text class="t1" x="184" y="160">Device Tree</text><text class="t3" x="184" y="171">i.MX8MQ  +  board overlay</text><line class="arr" x1="184" y1="179" x2="184" y2="181"/><rect class="box-hi" x="14" y="180" width="340" height="28" rx="4"/><text class="t1" x="184" y="190">U-Boot Bootloader</text><text class="t3" x="184" y="201">SPL + main  ·  secure boot</text><line class="arr" x1="184" y1="209" x2="184" y2="211"/><rect class="box" x="14" y="210" width="340" height="28" rx="4"/><text class="t1" x="184" y="220">ARM Trusted Firmware</text><text class="t3" x="184" y="231">BL1/BL2/BL31  ·  TrustZone</text><text class="t3" x="565" y="30">YOCTO LAYERS</text><rect class="box" x="390" y="44" width="356" height="32" rx="4"/><text class="t1" x="568" y="56">meta-avench-bsp</text><text class="t3" x="568" y="68">Custom board layer</text><rect class="box" x="390" y="78" width="356" height="32" rx="4"/><text class="t1" x="568" y="90">meta-imx</text><text class="t3" x="568" y="102">NXP i.MX8 support</text><rect class="box" x="390" y="112" width="356" height="32" rx="4"/><text class="t1" x="568" y="124">meta-openembedded</text><text class="t3" x="568" y="136">OE core recipes</text><rect class="box" x="390" y="146" width="356" height="32" rx="4"/><text class="t1" x="568" y="158">openembedded-core</text><text class="t3" x="568" y="170">Poky base</text><rect class="box-hi" x="390" y="186" width="356" height="50" rx="4"/><text class="t1" x="568" y="202">Custom Kernel Drivers</text><text class="t3" x="568" y="216">MIPI CSI-2 · PCIe · USB3 · CAN FD</text><text class="t3" x="568" y="228">Platform: ARM Device Tree bindings</text></svg>